<?xml version="1.0" encoding="UTF-8"?>
<svg id="Ebene_2" data-name="Ebene 2" xmlns="http://www.w3.org/2000/svg" viewBox="0 0 566.93 708.65">
  <defs>
    <style>
      .cls-1 {
        fill: #242114;
        stroke-width: 0px;
      }
    </style>
  </defs>
  <g id="Ebene_1-2" data-name="Ebene 1">
    <path class="cls-1" d="M566.92,609.9c-.09-5.31-.59-10.51-1.5-15.57h.04l-36.34-227.72c-2.3-15.4-10.6-29.88-24.29-39.62-20.04-14.27-45.99-14.41-65.69-2.27h0s-275.7,172.18-275.7,172.18c-23.96,14.96-55.51,7.67-70.47-16.29-14.96-23.96-7.67-55.51,16.29-70.47l134.46-83.97c12.34-7.7,15.42-24.33,6.67-35.94l-42.65-56.6c-23.45-31.11-18.2-75.69,12.62-99.52,29.67-22.94,71.6-18.62,96.09,8.74.24.17.48.36.71.54l58.32,77.41c23.55,31.26,67.99,37.5,99.24,13.95,31.26-23.55,37.5-67.99,13.95-99.24l-70.54-93.77h0C399.23,16.4,369.04,0,335.01,0H0v708.65h134.85c24.86,0,52.26-7.23,68.68-28.44l247.24-319.24c8.15-10.52,23.31-13.1,34.04-5.22,10.68,7.85,12.29,22.32,5.41,33.73l-101.72,168.87s-.02.04-.02.04c-10.01,15.26-15.82,33.52-15.82,53.13,0,55.49,46.54,100.11,102.73,96.96,51.8-2.9,92.37-46.72,91.52-98.59Z"/>
  </g>
</svg>